<svg xmlns="http://www.w3.org/2000/svg" xmlns:xlink="http://www.w3.org/1999/xlink" version="1.1" x="0px" y="0px" viewBox="0 0 100 125" style="enable-background:new 0 0 100 100;" xml:space="preserve"><path d="M61.1791992,74.0500488H29.543457c-1.3789063,0-2.5,1.1210938-2.5,2.5v8.0673828c0,1.3789063,1.1210938,2.5,2.5,2.5  h31.6357422c1.3789063,0,2.5-1.1210938,2.5-2.5v-8.0673828C63.6791992,75.1711426,62.5581055,74.0500488,61.1791992,74.0500488z   M36.3100586,84.1174316H30.043457v-7.0673828h6.2666016V84.1174316z M51.4125977,84.1174316H39.3100586v-7.0673828h12.1025391  V84.1174316z M60.6791992,84.1174316h-6.2666016v-7.0673828h6.2666016V84.1174316z M44.1000977,25.107666  c-1.0625,1.6479492-10.3886719,16.2856445-10.3886719,22.7348633c0,7.0107422,5.2255859,12.7143555,11.6494141,12.7143555  s11.6503906-5.7036133,11.6503906-12.7143555c0-6.4492188-9.3261719-21.0869141-10.3896484-22.7348633  C46.0688477,24.2521973,44.652832,24.2521973,44.1000977,25.107666z M45.3608398,57.5568848  c-2.2298584,0-4.258606-0.9606934-5.7939453-2.5224609h11.5883179  C49.6196289,56.5961914,47.5906982,57.5568848,45.3608398,57.5568848z M53.1523438,52.0344238H37.5701294  c-0.3378906-0.7887573-0.5837402-1.6337891-0.7216187-2.5224609h17.0256348  C53.7362671,50.4006348,53.4902954,51.2456665,53.1523438,52.0344238z M53.8565063,46.5119629H36.8661499  c0.1427612-0.7530518,0.3789673-1.5983276,0.703064-2.5229492h15.5841064  C53.477478,44.9136353,53.7137451,45.7589111,53.8565063,46.5119629z M38.7756348,40.9890137  c1.8738403-4.2252808,4.632019-9.0529785,6.5852051-12.2441406c1.953186,3.1911621,4.711792,8.0188599,6.5858765,12.2441406  H38.7756348z M70.8071289,2.2214355c-4.5472412,0-8.5827026,2.1888428-11.1416626,5.5576172H27.6928711  c-6.8925781,0-12.5,5.6074219-12.5,12.5v64.9995117c0,6.8925781,5.6074219,12.5,12.5,12.5h35.3359375  c6.8925781,0,12.5-5.6074219,12.5-12.5v-55.894104c5.3998413-1.9434814,9.2783203-7.1020508,9.2783203-13.1630249  C84.8071289,8.501709,78.5268555,2.2214355,70.8071289,2.2214355z M72.5288086,85.2785645c0,5.2382813-4.2617188,9.5-9.5,9.5  H27.6928711c-5.2382813,0-9.5-4.2617188-9.5-9.5V20.2790527c0-5.2382813,4.2617188-9.5,9.5-9.5h30.2155151  c-0.7089233,1.6738892-1.1012573,3.5131836-1.1012573,5.4423828c0,0.6486816,0.0597534,1.2822266,0.1455688,1.9077148H26.0288086  c-1.3789063,0-2.5,1.121582-2.5,2.5V64.348877c0,1.3789063,1.1210938,2.5,2.5,2.5h38.6650391c1.3789063,0,2.5-1.1210938,2.5-2.5  V29.7315063c1.1549683,0.3093262,2.3621216,0.4899292,3.6132813,0.4899292c0.5840454,0,1.156189-0.0473022,1.7216797-0.1171265  V85.2785645z M64.1938477,28.555542v35.293335H26.5288086V21.1291504h31.1834717  C58.9107666,24.3155518,61.2260132,26.9577637,64.1938477,28.555542z M70.8071289,27.2214355c-6.0654297,0-11-4.9345703-11-11  s4.9345703-11,11-11s11,4.9345703,11,11S76.8725586,27.2214355,70.8071289,27.2214355z M78.6459961,11.6687012  l-8.7470703,10.9755859c-0.2841797,0.3569336-0.7167969,0.5649414-1.1728516,0.5649414c-0.0068359,0-0.0126953,0-0.0195313,0  c-0.4638672-0.0063477-0.8984375-0.2265625-1.1777344-0.5966797l-4.5849609-6.0756836  c-0.4990234-0.6611328-0.3671875-1.6015625,0.2939453-2.1005859c0.6601563-0.4990234,1.6015625-0.3691406,2.1005859,0.2939453  l3.4199219,4.5317383L76.300293,9.798584c0.5166016-0.6474609,1.4599609-0.753418,2.1074219-0.237793  C79.0561523,10.0769043,79.1625977,11.020752,78.6459961,11.6687012z"/>
</svg>