<svg xmlns="http://www.w3.org/2000/svg" xmlns:xlink="http://www.w3.org/1999/xlink" version="1.1" x="0px" y="0px" viewBox="0 0 100 125" style="enable-background:new 0 0 100 100;" xml:space="preserve"><path d="M83.7,70.7l-18.4-5.3c-3.9-1.3-8.5,2.4-9.9,3.7c-9.9-2.8-22.1-15-25-25c1.3-1.4,5.1-6,3.8-9.8L29,16  c-0.1-0.5-0.7-0.8-1.2-0.7L12,17.9c-0.5,0.1-0.8,0.5-0.9,1C9.9,36.8,17.1,55,30.9,68.8c12.8,12.8,29.3,19.9,45.9,19.9  c1.3,0,2.7,0,4-0.1c0.5,0,0.9-0.4,1-0.9l2.7-15.8C84.6,71.3,84.3,70.8,83.7,70.7z M79.9,86.6c-17,1-34.3-6-47.5-19.2  S12.2,36.9,13.2,19.8l14.1-2.4l5,17.6c0.9,2.7-2.4,6.8-3.7,8.1c-0.3,0.3-0.4,0.6-0.3,1c2.8,11,16.2,24.5,27.2,27.2  c0.4,0.1,0.7,0,1-0.3c1.3-1.3,5.4-4.6,8.2-3.6l17.6,5L79.9,86.6z"/><path d="M48.3,11.3c-0.6,0-1,0.5-1,1c0,0.6,0.5,1,1,1C69.2,13.4,86.9,31,86.9,52c0,0.6,0.5,1,1,1s1-0.5,1-1  C89,29.9,70.4,11.3,48.3,11.3z"/><path d="M48.3,37.4c7.9,0,14.6,6.7,14.6,14.6c0,0.6,0.5,1,1,1c0.6,0,1-0.5,1-1c0-9-7.6-16.7-16.7-16.7c-0.6,0-1,0.5-1,1  S47.7,37.4,48.3,37.4z"/><path d="M48.3,25.4c15.2,0,26.6,11.4,26.6,26.6c0,0.6,0.5,1,1,1c0.6,0,1-0.5,1-1c0-16.1-12.6-28.7-28.7-28.7c-0.6,0-1,0.5-1,1  S47.7,25.4,48.3,25.4z"/>
</svg>