<svg xmlns="http://www.w3.org/2000/svg" viewBox="0 0 100 125" x="0px" y="0px"><title>medicine vol.1</title><g><path d="M34.57,28.76A10.28,10.28,0,0,0,32.1,24.1c3.26-1.17,6.84-3.46,7.39-7.94A11.18,11.18,0,0,0,34.75,6c-5-3.73-12.47-3.84-20.38-.32C8.92,8.1,5.21,13.39,3.64,21,1.35,32,4.25,46.62,10,52.85c3.73,4,9.22,5.78,14.34,5.78A21.07,21.07,0,0,0,31,57.55c5.06-1.73,8.16-5.22,8.51-9.56.38-4.57-.54-8-2.71-10.31a9.89,9.89,0,0,0-4.45-2.6,7.33,7.33,0,0,0,2.24-4.27c3,.64,11.39,3,11.39,9.5V95.9a1,1,0,0,0,2,0V40.31C48,31.83,37.51,29.3,34.57,28.76Zm-4.65,5.83a25,25,0,0,0-4.06-.18,1,1,0,0,0,.07,2c4.5-.16,7.6.71,9.47,2.66s2.49,4.78,2.16,8.76c-.29,3.51-2.9,6.37-7.17,7.83-5.71,2-14.06,1.16-19-4.17S3.2,33,5.6,21.38c1-4.83,3.47-11.16,9.58-13.88,7.24-3.22,13.94-3.19,18.38.1a9.14,9.14,0,0,1,3.94,8.32c-.81,6.67-11,7.37-11.11,7.37a1,1,0,0,0-.94,1.06,1,1,0,0,0,1.06.94A22.09,22.09,0,0,0,30,24.74c.83.8,2.81,3,2.74,5.42C32.64,31.74,31.7,33.23,29.92,34.59Z"/><path d="M96.14,21C94.57,13.39,90.86,8.1,85.41,5.67,77.5,2.15,70.07,2.26,65,6a11.18,11.18,0,0,0-4.74,10.17c.55,4.48,4.13,6.77,7.39,7.94a10.28,10.28,0,0,0-2.47,4.66c-2.94.54-13.45,3.07-13.45,11.55V95.9a1,1,0,0,0,2,0V40.31c0-6.52,8.38-8.86,11.39-9.5a7.33,7.33,0,0,0,2.24,4.27,9.89,9.89,0,0,0-4.45,2.6C60.77,40,59.85,43.42,60.23,48c.35,4.34,3.45,7.83,8.51,9.56a20.8,20.8,0,0,0,6.74,1.08c5.12,0,10.61-1.73,14.34-5.78C95.53,46.62,98.43,32,96.14,21Zm-7.8,30.52c-4.89,5.33-13.24,6.13-19,4.17-4.27-1.46-6.88-4.32-7.17-7.83-.33-4,.4-6.92,2.16-8.76s5-2.83,9.47-2.66h0a1,1,0,0,0,1-1,1,1,0,0,0-1-1,25,25,0,0,0-4.06.18c-1.78-1.36-2.71-2.85-2.77-4.43C67,27.71,69,25.55,69.84,24.74a21.88,21.88,0,0,0,3.43.55,1,1,0,0,0,1.06-.94,1,1,0,0,0-.94-1.06c-.1,0-10.3-.68-11.11-7.37A9.19,9.19,0,0,1,66.22,7.6c4.45-3.29,11.14-3.32,18.38-.1,6.11,2.72,8.58,9.05,9.58,13.88C96.58,33,93.1,46.31,88.34,51.49Z"/></g>
</svg>