<svg xmlns="http://www.w3.org/2000/svg" xmlns:xlink="http://www.w3.org/1999/xlink" version="1.1" x="0px" y="0px" viewBox="0 0 100 125" style="enable-background:new 0 0 100 100;" xml:space="preserve"><g><g><path d="M48.2,22.1c-7,0-11.4-0.7-11.7-0.7c-0.6-0.1-1.1-0.7-1-1.3c0.1-0.6,0.7-1.1,1.3-1c0.1,0,10,1.5,23.7,0    c0,0,1.6-0.2,4.2-0.5c0.6-0.1,1.2,0.4,1.3,1c0.1,0.6-0.4,1.2-1,1.3c-2.7,0.3-4.3,0.5-4.3,0.5C56.1,21.9,51.8,22.1,48.2,22.1z"/></g><g><path d="M25.1,40.6c-0.5,0-1-0.4-1.1-0.9c-0.2-0.9-3.9-21.5,7.9-32.4V1.2C31.9,0.5,32.4,0,33,0    c0.6,0,1.2,0.5,1.2,1.2v7.1l-0.4,0.3c-11.3,9.9-7.6,30.4-7.6,30.6c0.1,0.6-0.3,1.2-0.9,1.3C25.2,40.6,25.1,40.6,25.1,40.6z"/></g><g><path d="M50,22.1c-0.6,0-1.2-0.5-1.2-1.2c0-11.4-8.2-12.6-8.5-12.7l-1-0.1V1.2c0-0.6,0.5-1.2,1.2-1.2    c0.6,0,1.2,0.5,1.2,1.2v5c2.6,0.8,9.5,3.8,9.5,14.7C51.2,21.6,50.6,22.1,50,22.1z"/></g><g><path d="M51,100c-0.7,0-1.4-0.1-2-0.2c-13.5-2.4-26.6-15-27.2-15.5c-3.2-3.3-5.8-6.6-7.7-10    c-5.6-10.2-3.5-23,5.1-31.1l3.4-3.2c3.9-3.7,9.3-5.2,14.5-4.2c1.2-2.2,1.7-4.3,1.9-5.6c-0.2,0-0.5-0.1-0.8-0.1    c-2.8-0.4-4.8-3.1-4.4-5.9c0.7-5.2,3.7-9.2,3.8-9.3c0.4-0.5,1.1-0.6,1.6-0.2c0.5,0.4,0.6,1.1,0.2,1.6c0,0-2.7,3.6-3.4,8.2    c-0.2,1.6,0.9,3.1,2.5,3.3c1.1,0.2,1.9,0.3,1.9,0.3l1.1,0.1l-0.1,1.1c0,0.2-0.4,4.3-2.8,8.4l-0.4,0.7l-0.8-0.2    c-4.8-1.1-9.7,0.2-13.2,3.5l-3.4,3.2c-7.9,7.4-9.8,19-4.7,28.3c1.8,3.2,4.2,6.4,7.3,9.5c0.1,0.1,13.2,12.6,25.9,14.9    c3.7,0.7,7.3-0.9,9.3-4c1-1.6,2-3.5,2.9-5.6c1.8-4.3,2.8-8.6,3.2-12.6c0.8-9.5-1.2-17-1.3-17c-2-6.3-6.7-11.5-12.9-14.1    c-0.3-0.1-0.6-0.4-0.7-0.7c-0.2-0.5-2.1-5.6-2.1-13.7l0-1.1l1.1,0c0.1,0,5.1-0.2,11.6-0.8h0c0,0,1.8-0.2,4.3-0.5    c0.6-0.1,1.2,0.4,1.3,1c0.1,0.6-0.4,1.2-1,1.3c-2.5,0.3-4.4,0.5-4.4,0.5c-4.8,0.4-8.8,0.6-10.6,0.7c0.1,6.1,1.3,10.1,1.7,11.3    c6.7,2.9,11.7,8.5,13.8,15.4c0.1,0.4,2.2,8,1.3,17.9c-0.4,4.3-1.5,8.8-3.4,13.3c-0.9,2.3-2,4.3-3.1,6C58.5,98.1,54.9,100,51,100z"/></g><g><path d="M12.1,63.4c-0.3,0-0.5-0.1-0.8-0.3c-17.1-15.3-8.5-28.5-6.5-31c0.6-0.8,1.2-1.5,1.6-2.3    c5.2-8.6,3.9-17.1,3.9-17.2c-0.1-0.6,0.3-1.2,0.9-1.3c0.6-0.1,1.2,0.3,1.3,0.9c0.1,0.4,1.5,9.5-4.2,18.8c-0.5,0.9-1.1,1.7-1.8,2.5    c-2.4,3.1-9,14.3,6.3,27.8c0.5,0.4,0.5,1.2,0.1,1.6C12.8,63.3,12.5,63.4,12.1,63.4z"/></g><g><path d="M24.8,26.8c-0.1,0-0.2,0-0.3,0c-7.4-2-5.8-14-5.7-14.5c0.1-0.6,0.7-1.1,1.3-1c0.6,0.1,1.1,0.7,1,1.3    c0,0.1-1.4,10.5,4,11.9c0.6,0.2,1,0.8,0.8,1.4C25.7,26.5,25.3,26.8,24.8,26.8z"/></g><g><path d="M51.4,69.3c-0.2,0-0.3,0-0.5-0.1C41.3,64.4,40.1,57.3,40.1,57c-0.1-0.6,0.3-1.2,1-1.3    c0.6-0.1,1.2,0.3,1.3,1c0,0.3,1.1,6.2,9.5,10.4c0.6,0.3,0.8,1,0.5,1.5C52.2,69,51.8,69.3,51.4,69.3z"/></g><g><path d="M36.4,67.6c-0.3,0-0.6-0.1-0.9-0.4c-10.5-12,0.7-30,1.2-30.8c0.3-0.5,1.1-0.7,1.6-0.4    c0.5,0.3,0.7,1.1,0.4,1.6c-0.1,0.2-10.8,17.4-1.4,28c0.4,0.5,0.4,1.2-0.1,1.6C36.9,67.5,36.7,67.6,36.4,67.6z"/></g><g><path d="M49.5,79.6c-0.2,0-0.4,0-0.6-0.1c-3.2-1.8-5.2-4.1-5.7-6.9c-0.9-4.4,2.1-8.3,2.2-8.5    c0.4-0.5,1.1-0.6,1.6-0.2c0.5,0.4,0.6,1.1,0.2,1.6c0,0-2.5,3.2-1.8,6.6c0.4,2.1,2,3.9,4.6,5.3c0.6,0.3,0.8,1,0.4,1.6    C50.3,79.4,49.9,79.6,49.5,79.6z"/></g><g><path d="M76.9,69.4c-0.6,0-1.1-0.4-1.1-1c-0.1-0.6,0.4-1.2,1-1.3l10.9-1.2l-7.1-5.4l17.3-2c0.6-0.1,1.2,0.4,1.3,1    c0.1,0.6-0.4,1.2-1,1.3l-11.6,1.4l7.2,5.4L77,69.4C77,69.4,76.9,69.4,76.9,69.4z"/></g><g><path d="M87.2,89.9l-14.3-8.6c-0.5-0.3-0.7-1-0.4-1.6c0.3-0.5,1-0.7,1.6-0.4l9.4,5.6L81,76.3l15,8.8    c0.5,0.3,0.7,1,0.4,1.6c-0.3,0.5-1,0.7-1.6,0.4l-10.1-5.9L87.2,89.9z"/></g><g><path d="M72.3,56.1c-0.4,0-0.7-0.2-0.9-0.5c-0.4-0.5-0.2-1.2,0.3-1.6l8.9-6.3l-8.8-1.3l14.1-10.2    c0.5-0.4,1.2-0.3,1.6,0.3c0.4,0.5,0.3,1.2-0.3,1.6L77.7,45l8.9,1.3L73,55.9C72.8,56.1,72.6,56.1,72.3,56.1z"/></g></g>
</svg>