<svg xmlns:dc="http://purl.org/dc/elements/1.1/" xmlns:cc="http://creativecommons.org/ns#" xmlns:rdf="http://www.w3.org/1999/02/22-rdf-syntax-ns#" xmlns:svg="http://www.w3.org/2000/svg" xmlns="http://www.w3.org/2000/svg" xmlns:sodipodi="http://sodipodi.sourceforge.net/DTD/sodipodi-0.dtd" xmlns:inkscape="http://www.inkscape.org/namespaces/inkscape" version="1.1" x="0px" y="0px" viewBox="0 0 100 125"><g transform="translate(0,-952.36218)"><path style="text-indent:0;text-transform:none;direction:ltr;block-progression:tb;baseline-shift:baseline;color:#000000;enable-background:accumulate;" d="m 68.5,961.34008 c -11.250084,0 -20.413562,9.06361 -20.5,20.28672 l -13.71875,-4.25114 a 1.0001,1.0003696 0 0 0 -0.46875,-0.0313 1.0001,1.0003696 0 0 0 -0.09375,0.0313 l -22,6.81433 A 1.0001,1.0003696 0 0 0 11,985.159 l 0,21.1932 a 1.0001,1.0003696 0 1 0 2,0 l 0,-20.47425 20,-6.18917 0,55.10862 -20,6.1891 0,-28.6327 a 1.0001,1.0003696 0 1 0 -2,0 l 0,30.0081 a 1.0001,1.0003696 0 0 0 1.28125,0.9378 L 34,1036.5791 l 21.71875,6.7206 a 1.0001,1.0003696 0 0 0 0.5625,0 l 22,-6.8144 A 1.0001,1.0003696 0 0 0 79,1035.5476 l 0,-33.5403 c 0.94208,-1.1204 1.86995,-2.27903 2.75,-3.43843 3.981874,-5.2459 7.148557,-10.88706 7.25,-16.75452 a 1.0001,1.0003696 0 0 0 0,-0.0313 c 0,-11.29888 -9.196425,-20.44301 -20.5,-20.44301 z m 0,2.00054 c 10.224445,0 18.5,8.229 18.5,18.44247 -0.08921,5.15969 -2.973424,10.46776 -6.84375,15.5667 -3.630378,4.78281 -8.019543,9.33671 -11.65625,13.50361 -3.637842,-4.1705 -8.060033,-8.7152 -11.6875,-13.50361 -3.862592,-5.09881 -6.723272,-10.40607 -6.8125,-15.5667 0,-10.21539 8.275576,-18.44247 18.5,-18.44247 z m 0,9.00243 c -5.234869,0 -9.5,4.26629 -9.5,9.50256 0,5.23627 4.265132,9.50256 9.5,9.50256 5.234851,0 9.5,-4.26629 9.5,-9.50256 0,-5.23627 -4.265149,-9.50256 -9.5,-9.50256 z m 0,2.00054 c 4.153969,0 7.5,3.34692 7.5,7.50202 0,4.1551 -3.346031,7.50202 -7.5,7.50202 -4.15399,0 -7.5,-3.34692 -7.5,-7.50202 0,-4.1551 3.346009,-7.50202 7.5,-7.50202 z m -33.5,5.34519 13.15625,4.06359 c 0.650328,5.07294 3.433659,9.94661 6.875,14.53517 A 1.0001,1.0003696 0 0 0 55,998.53761 l 0,42.44889 -20,-6.1891 0,-55.10862 z m 22,21.16192 c 3.577276,4.3874 7.5741,8.4555 10.71875,12.1283 a 1.0001,1.0003696 0 0 0 1.53125,0 c 2.298789,-2.6849 5.036608,-5.6053 7.75,-8.6898 l 0,30.5082 -20,6.1891 0,-40.1358 z" fill="#000000" fill-opacity="1" stroke="none" marker="none" visibility="visible" display="inline" overflow="visible"/></g>
</svg>