<svg xmlns="http://www.w3.org/2000/svg" xmlns:xlink="http://www.w3.org/1999/xlink" version="1.1" x="0px" y="0px" viewBox="0 0 100 125" style="enable-background:new 0 0 100 100;" xml:space="preserve"><g><path d="M41.2,33.8c-6.4,0-12.5,2.5-17,7c-9.4,9.4-9.4,24.7,0,34.1c4.6,4.5,10.7,7,17,7c6.5,0,12.6-2.5,17-7   c9.3-9.3,9.3-24.6,0-34.1C53.6,36.3,47.5,33.8,41.2,33.8z M56.8,73.5C56.8,73.5,56.8,73.5,56.8,73.5c-4.1,4.2-9.6,6.5-15.6,6.5   c-5.8,0-11.4-2.3-15.6-6.5c-8.6-8.6-8.6-22.7,0-31.3c4.2-4.2,9.7-6.5,15.6-6.5c5.8,0,11.4,2.3,15.6,6.5   C65.4,50.9,65.4,64.9,56.8,73.5z"/><path d="M97.6,11.6l0-0.1c-0.2-2.1-0.7-7.5-8.6-8c0,0,0,0-0.1,0c-0.3,0-22.1,0.2-23,0.2c-4.4,0.1-8.2,4.3-8.2,9   c0.1,4.8,3.9,8.8,8.4,8.8c0.1,0,0.1,0,0.2,0l1.1-0.2L62.6,26c-6.4-4.3-13.7-6.6-21.3-6.6c-10.4,0-20.1,4-27.4,11.2   c-15,15-15,39.6,0,54.7c7.3,7.3,17,11.3,27.4,11.3c10.4,0,20.1-4,27.4-11.3c12.7-12.7,15.2-32.7,5.9-47.7l6.4-6.1v2.8   c0,4.6,3.7,8.3,8.3,8.3c4.6,0,8.3-3.7,8.3-8.3L97.6,11.6z M89.3,40.7c-3.5,0-6.4-2.9-6.4-6.4v-5.1c0-0.4-0.2-0.7-0.6-0.9   c-0.4-0.2-0.8-0.1-1.1,0.2l-8.6,8.2c-0.3,0.3-0.4,0.8-0.1,1.2c9.2,14.3,7,33.6-5.2,45.9c-6.9,6.9-16.2,10.8-26,10.8   c-9.8,0-19.1-3.8-26-10.8C1,69.6,1,46.3,15.3,32c6.9-6.9,16.1-10.7,26-10.7c7.4,0,14.7,2.3,20.9,6.7c0.4,0.3,0.9,0.2,1.2-0.1   l7.6-7.4c0.3-0.3,0.4-0.8,0.2-1.1c-0.2-0.4-0.6-0.6-1-0.5L66,19.5c-3.3,0-6.3-3.2-6.4-6.8c0-3.7,2.9-7,6.3-7c0.2,0,22.1-0.2,23-0.2   c6.2,0.3,6.6,4.2,6.8,6.2l0,22.7C95.7,37.9,92.8,40.7,89.3,40.7z"/></g>
</svg>