<svg xmlns:x="http://ns.adobe.com/Extensibility/1.0/" xmlns:i="http://ns.adobe.com/AdobeIllustrator/10.0/" xmlns:graph="http://ns.adobe.com/Graphs/1.0/" xmlns="http://www.w3.org/2000/svg" xmlns:xlink="http://www.w3.org/1999/xlink" version="1.1" x="0px" y="0px" viewBox="0 0 76 95" style="enable-background:new 0 0 76 76;" xml:space="preserve"><metadata><?xpacket begin="&#65279;" id="W5M0MpCehiHzreSzNTczkc9d"?><x:xmpmeta xmlns:x="adobe:ns:meta/" x:xmptk="Adobe XMP Core 5.6-c145 79.163499, 2018/08/13-16:40:22        "/><?xpacket end="w"?></metadata><path d="M10.8359375,71h54.328125c0.5527344,0,1-0.4477539,1-1v-4.262207c0-6.8247681-3.9945068-12.7183838-9.7594604-15.5123901  c1.7370605-7.1691895,3.4282837-22.4329224-1.5706177-34.1555786C51.921875,9.2416992,45.4589844,5,37.9648438,5  c-7.4931641,0-13.9560547,4.2416992-16.8681641,11.0698242c-5.003418,11.7362061-3.3023071,27.024353-1.5639038,34.1824951  c-5.730957,2.8040161-9.6968384,8.6781616-9.6968384,15.4766846V70C9.8359375,70.5522461,10.2832031,71,10.8359375,71z   M22.9365234,16.8540039C25.5283203,10.7758789,31.2871094,7,37.9648438,7c6.6787109,0,12.4375,3.7758789,15.0292969,9.8540039  c4.4115601,10.3452759,3.3980713,24.6992188,1.5397949,32.5950928c-1.4743652-0.5099487-3.0369263-0.819397-4.6605225-0.9089966  c-0.0735474-0.0158691-0.1455688-0.0120239-0.2196045-0.0111084c-0.2458496-0.010437-0.4874878-0.0372925-0.7358398-0.0372925  h-2.1533203c-1.0619507,0-1.9459229-0.7639771-2.1383057-1.7703857c4.5687256-3.2605591,8.071106-10.2495728,8.0758057-21.5299072  c0-0.5063477-0.3779297-0.9326172-0.8798828-0.9931641c-2.4267578-0.293457-4.5517578-1.3046875-6.3164062-3.0063477  c-2.515625-2.4248047-6.3320312-2.8081055-9.2910156-0.9287109c-5.6113281,3.5712891-10.5224609,3.8720703-11.9257812,3.8354492  c0,0-0.0009766,0-0.0019531,0c-0.5507812,0-0.9980469,0.4458008-1,0.9970703  c-0.0244141,8.878418,2.2353516,16.0463867,6.3613281,20.1845703c0.5471802,0.5487061,1.1248169,1.0307007,1.7234497,1.4581299  c-0.1989136,0.9981079-1.0804443,1.7532959-2.1365356,1.7532959h-2.1621094c-0.2568359,0-0.5067139,0.0274048-0.7608032,0.0385742  c-0.0895386-0.0043335-0.1771851-0.0066528-0.2661133,0.0134888c-1.6185913,0.0961304-3.175293,0.4121704-4.6443481,0.9262085  C19.5413208,41.5783081,18.5219116,27.2077026,22.9365234,16.8540039z M37.9951172,46.909668  c-2.5498047,0-4.9462891-1.0517578-6.9306641-3.0419922c-3.6025391-3.6132812-5.6376953-9.9111328-5.7695312-17.8037109  c2.2490234-0.144043,6.8857422-0.8632812,11.9941406-4.1132812c2.1376953-1.3608398,5.0107422-1.0737305,6.828125,0.6806641  c1.8671875,1.800293,4.0761719,2.9467773,6.5771484,3.4160156C50.4697266,38.5634766,45.421875,46.909668,37.9951172,46.909668z   M33.1351318,47.7797241c1.524353,0.7369385,3.1586914,1.1299438,4.8599854,1.1299438  c1.6467896,0,3.2927856-0.3933105,4.8616333-1.156189c0.5900269,1.5933838,2.1118164,2.7382202,3.9078979,2.7382202h1.0598755  c-3.5638428,5.3161621-4.9539795,5.7487793-9.8313599,5.7568359c-0.0449219,0-0.0888672,0-0.1328125,0  c-4.7555542,0-6.1557617-0.4713135-9.7423706-5.7568359h1.1173706  C31.0217896,50.4916992,32.538147,49.3596802,33.1351318,47.7797241z M11.8359375,65.7290039  c0-7.958313,6.1351929-14.5010986,13.9232788-15.1707764c4.321106,6.5627441,6.1578369,7.6903076,12.1548462,7.6903076  c0.0273438,0,0.0546875,0,0.0830078,0c6.0784912-0.010498,7.9053955-1.1187134,12.1809082-7.6929932  c1.6350098,0.1347656,3.2005615,0.5175171,4.6497803,1.1292725c0.0513916,0.0236206,0.0942993,0.0594482,0.1507568,0.0744629  c0.0031128,0.0008545,0.0061646-0.0002441,0.0092773,0.0005493c5.3931885,2.3513794,9.1762695,7.7285767,9.1762695,13.9779663V69  h-8.2460938v-4.8989258c0-0.5522461-0.4472656-1-1-1s-1,0.4477539-1,1V69H22.0820312v-4.8989258c0-0.5522461-0.4472656-1-1-1  s-1,0.4477539-1,1V69h-8.2460938V65.7290039z"/>
</svg>