<svg xmlns="http://www.w3.org/2000/svg" data-name="Слой 1" viewBox="0 0 128 160" x="0px" y="0px"><title>ic_abdominal_pain</title>
<path d="M127.54,90.72c-.56-3.91-3-14.27-4.19-16.6a41.26,41.26,0,0,1-.94-5.13c-.28-1.82-.56-3.71-.89-5.38a124.54,124.54,0,0,1-2-14.61c0-.27.07-1,.15-1.74.43-3.91,1.31-12-1.28-19a28.72,28.72,0,0,0-14-16.09c-1.8-.9-6.13-2.69-10.71-4.59S83,3.17,81.87,2.49L80,.59a2,2,0,0,0-2.83,2.82l2,2c.71.72,2.79,1.66,13.07,5.91,4.31,1.79,8.78,3.63,10.45,4.47a24.77,24.77,0,0,1,12,13.91c2.26,6,1.45,13.52,1.06,17.13-.11,1-.18,1.68-.18,2.17a126.27,126.27,0,0,0,2,15.39c.32,1.58.6,3.42.86,5.19.52,3.47.82,5.32,1.32,6.31.82,1.65,3.24,11.43,3.81,15.39,1,6.75,0,34.37,0,34.65a2,2,0,0,0,1.92,2.07h.08a2,2,0,0,0,2-1.93C127.6,124.92,128.55,97.81,127.54,90.72Z"/><path d="M111.54,102.72c-.24-1.66-.53-3.6-.84-5.64-1-6.32-2.14-14.17-2.14-17.08,0-2.46-2.12-9.48-5.11-19.14-1.32-4.24-2.81-9-2.89-9.86a2,2,0,0,0-4,0c0,1,.68,3.34,2.61,9.56C96,68,94.56,83,94.56,87c0,1.16.21,2.93.45,5a59.9,59.9,0,0,1,.55,6c0,8.48.13,16.73,1.1,19.63a79.49,79.49,0,0,1,1.92,8.7,2,2,0,0,0,2,1.67,1.84,1.84,0,0,0,.33,0,2,2,0,0,0,1.65-2.3,81.33,81.33,0,0,0-2.08-9.3c-.89-2.69-.89-14.08-.89-18.37A62,62,0,0,0,99,91.52c-.22-1.77-.43-3.6-.43-4.52a106.49,106.49,0,0,1,2.66-19.79c1.66,5.47,3.34,11.26,3.34,12.79,0,3.21,1.16,10.89,2.18,17.68.31,2,.6,3.95.84,5.6,1,7,4.87,22.55,5,23.21a2,2,0,0,0,1.94,1.51,2.05,2.05,0,0,0,.49-.06,2,2,0,0,0,1.46-2.43C116.46,125.36,112.51,109.53,111.54,102.72Z"/>
<path d="M50.86,3.41A2,2,0,0,0,48,.59l-1.9,1.9c-1.1.68-7.31,3.25-11.87,5.13s-8.91,3.69-10.71,4.59a28.72,28.72,0,0,0-14,16.09C7,35.21,7.86,43.35,8.29,47.26c.08.75.15,1.47.15,1.74a124.54,124.54,0,0,1-2,14.61c-.33,1.67-.61,3.56-.89,5.38a43.09,43.09,0,0,1-.93,5.12C3.49,76.45,1,86.81.46,90.72c-1,7.09-.06,34.2,0,35.35a2,2,0,0,0,2,1.93h.08a2,2,0,0,0,1.92-2.07c0-.28-1-27.9,0-34.65.57-4,3-13.74,3.81-15.39.5-1,.8-2.84,1.32-6.31.26-1.77.54-3.61.86-5.19a126.27,126.27,0,0,0,2-15.39c0-.49-.07-1.16-.18-2.17-.39-3.61-1.2-11.1,1.06-17.13a24.77,24.77,0,0,1,12-13.91C27,15,31.48,13.11,35.79,11.32,46.07,7.07,48.15,6.13,48.86,5.41Z"/><path d="M31.44,51a2,2,0,0,0-2-2,2,2,0,0,0-2,2c-.09.89-1.58,5.7-2.9,9.94-3,9.66-5.11,16.68-5.11,19.14,0,2.91-1.18,10.76-2.14,17.08-.31,2-.6,4-.84,5.64-1,6.81-4.92,22.64-5,22.79A2,2,0,0,0,13,127.94a2.05,2.05,0,0,0,.49.06,2,2,0,0,0,1.94-1.51c.16-.66,4-16.19,5-23.21.24-1.65.53-3.57.84-5.6,1-6.79,2.18-14.47,2.18-17.68,0-1.53,1.68-7.32,3.34-12.79A106.49,106.49,0,0,1,29.44,87c0,.92-.21,2.75-.43,4.52A62,62,0,0,0,28.44,98c0,4.29,0,15.68-.89,18.37a81.33,81.33,0,0,0-2.08,9.3,2,2,0,0,0,1.65,2.3,1.84,1.84,0,0,0,.33,0,2,2,0,0,0,2-1.67,79.49,79.49,0,0,1,1.92-8.7c1-2.9,1.1-11.15,1.1-19.63A59.9,59.9,0,0,1,33,92c.24-2.06.45-3.83.45-5,0-4-1.39-19-4.61-26.44C30.76,54.34,31.44,52,31.44,51Z"/><path d="M78.87,88.41a2,2,0,0,0,0,2.83,21,21,0,0,1,0,29.69,2,2,0,0,0,1.41,3.41,2,2,0,0,0,1.42-.59,25,25,0,0,0,0-35.34A2,2,0,0,0,78.87,88.41Z"/>
<path d="M49.18,91.23a2,2,0,1,0-2.82-2.83,25,25,0,0,0,0,35.35,2,2,0,1,0,2.83-2.83A21,21,0,0,1,49.18,91.23Z"/>
<path d="M78.72,113.41a16.44,16.44,0,0,0-7.37-22A2,2,0,1,0,69.57,95a12.44,12.44,0,0,1,5.57,16.65A2,2,0,0,0,76,114.3a2,2,0,0,0,.9.21A2,2,0,0,0,78.72,113.41Z"/>
<path d="M58.48,117.19a12.43,12.43,0,0,1-5.56-16.65,2,2,0,1,0-3.58-1.79,16.41,16.41,0,0,0,7.36,22,2,2,0,0,0,.89.21,2,2,0,0,0,.89-3.79Z"/>
<path d="M67.6,98.92a8,8,0,0,0-10.73,3.59h0a8,8,0,0,0,3.59,10.73,7.91,7.91,0,0,0,3.55.84,8,8,0,0,0,7.6-10.54A7.89,7.89,0,0,0,67.6,98.92Zm0,8.94a4,4,0,1,1-7.16-3.57h0A4,4,0,0,1,64,102.08a4,4,0,0,1,3.58,5.78Z"/>
<!-- <text x="0" y="143" fill="#000000" font-size="5px" font-weight="bold" font-family="'Helvetica Neue', Helvetica, Arial-Unicode, Arial, Sans-serif">Created by LAFS</text>
<text x="0" y="148" fill="#000000" font-size="5px" font-weight="bold" font-family="'Helvetica Neue', Helvetica, Arial-Unicode, Arial, Sans-serif">from the Noun Project</text>
-->
</svg>