<svg xmlns="http://www.w3.org/2000/svg" viewBox="0 0 64 80" x="0px" y="0px"><title>time</title><g><path d="M50,31.3V7a1,1,0,0,0-1-1H43V4a1,1,0,0,0-2,0V6H37V4a1,1,0,0,0-2,0V6H16V4a1,1,0,0,0-2,0V6H10V4A1,1,0,0,0,8,4V6H3A1,1,0,0,0,2,7V46a1,1,0,0,0,1,1H32.05A15,15,0,1,0,50,31.3ZM4,8H8v2a1,1,0,0,0,2,0V8h4v2a1,1,0,0,0,2,0V8H35v2a1,1,0,0,0,2,0V8h4v2a1,1,0,0,0,2,0V8h5v9H4ZM4,19H48V31.05c-.33,0-.66-.05-1-.05a15,15,0,0,0-15,14H4ZM47,59A13,13,0,1,1,60,46,13,13,0,0,1,47,59Z"/><path d="M15,22H9a1,1,0,0,0-1,1v6a1,1,0,0,0,1,1h6a1,1,0,0,0,1-1V23A1,1,0,0,0,15,22Zm-1,6H10V24h4Z"/><path d="M15,34H9a1,1,0,0,0-1,1v6a1,1,0,0,0,1,1h6a1,1,0,0,0,1-1V35A1,1,0,0,0,15,34Zm-1,6H10V36h4Z"/><path d="M29,34H23a1,1,0,0,0-1,1v6a1,1,0,0,0,1,1h6a1,1,0,0,0,1-1V35A1,1,0,0,0,29,34Zm-1,6H24V36h4Z"/><path d="M36,30h6a1,1,0,0,0,1-1V23a1,1,0,0,0-1-1H36a1,1,0,0,0-1,1v6A1,1,0,0,0,36,30Zm1-6h4v4H37Z"/><path d="M29,22H23a1,1,0,0,0-1,1v6a1,1,0,0,0,1,1h6a1,1,0,0,0,1-1V23A1,1,0,0,0,29,22Zm-1,6H24V24h4Z"/><path d="M48,45.52V38a1,1,0,0,0-2,0v8a1,1,0,0,0,.38.78l5,4A1,1,0,0,0,52,51a1,1,0,0,0,.78-.37,1,1,0,0,0-.15-1.41Z"/></g></svg>