<svg xmlns="http://www.w3.org/2000/svg" xmlns:xlink="http://www.w3.org/1999/xlink" version="1.1" x="0px" y="0px" viewBox="0 0 66 82.5" enable-background="new 0 0 66 66" xml:space="preserve"><g><path d="M5.4,54c-0.2,3.3-0.4,6.5-2.1,9.6c-0.3,0.5-0.1,1.1,0.4,1.3C4.2,65.1,4.8,65,5,64.5c1.9-3.5,2.1-7,2.3-10.4   c0.9-13.9,4.5-6.9,4.4-22.6c0-4.1-0.1-8.3,1.6-13.4c0.8-2.5,2.8-4.3,5.3-5c4.4-1.1,7.3-3,8.6-5.7c1.5-3,0.4-5.7,0.3-5.8   c-0.2-0.5-0.8-0.7-1.3-0.5c-0.5,0.2-0.7,0.8-0.5,1.3c0,0,0.8,2-0.3,4.2c-1.1,2.1-3.5,3.7-7.4,4.7c-3.2,0.8-5.7,3.1-6.7,6.3   c-1.7,5.4-1.7,10-1.7,14C9.9,46.9,6.3,39.3,5.4,54z"/><path d="M16.1,64.9c0.5,0.2,1.1,0.1,1.3-0.4c7-13.4,2.5-28.5,2.3-29.1c-0.1-0.4-0.6-0.7-1-0.7c-0.5,0-0.8,0.4-0.9,0.8   c-2.9,21.8-8,27.7-8.1,27.8c-0.4,0.4-0.3,1,0.1,1.4c0.4,0.4,1,0.3,1.4-0.1c0.2-0.2,4.7-5.3,7.7-23.4c0.7,5.5,0.9,14.3-3.2,22.3   C15.5,64.1,15.7,64.6,16.1,64.9z"/><path d="M60.6,54c-0.9-14.8-4.5-7-4.4-22.4c0-4.1,0.1-8.6-1.7-14c-1-3.1-3.5-5.5-6.7-6.3c-3.8-1-6.3-2.5-7.4-4.6   c-1.1-2.2-0.3-4.2-0.3-4.3c0.2-0.5,0-1.1-0.5-1.3c-0.5-0.2-1.1,0-1.3,0.5c0,0.1-1.2,2.9,0.3,5.8c1.3,2.6,4.2,4.6,8.6,5.7   c2.5,0.6,4.5,2.5,5.3,5c1.6,5.1,1.6,9.3,1.6,13.4c-0.1,15.8,3.5,8.6,4.4,22.6c0.2,3.4,0.4,6.9,2.3,10.4c0.3,0.5,0.9,0.6,1.3,0.4   c0.5-0.3,0.6-0.8,0.4-1.3C61,60.5,60.8,57.3,60.6,54z"/><path d="M54.9,64.7c0.4,0.4,1,0.4,1.4,0c0.4-0.4,0.4-1,0.1-1.4c-0.1-0.1-5.3-6-8.2-27.8c-0.1-0.5-0.4-0.8-0.9-0.8   c-0.5,0-0.9,0.2-1,0.7c-0.2,0.6-4.7,15.7,2.3,29.1c0.2,0.5,0.8,0.7,1.3,0.4c0.5-0.2,0.7-0.8,0.4-1.3c-4.2-8-3.9-16.8-3.2-22.3   C50.1,59.4,54.7,64.5,54.9,64.7z"/><path d="M34,4.5c-0.2-0.5-0.7-0.8-1.2-0.6c-0.5,0.2-0.8,0.7-0.6,1.2c0,0,0.2,0.5,0.4,1.4c0.1,0.5,0.7,0.8,1.2,0.7   C34.3,7,34.6,6.5,34.5,6C34.2,5.1,34,4.5,34,4.5z"/><path d="M32,54.4c0.5-0.1,0.9-0.6,0.8-1.1c-0.1-1-0.2-1.9-0.3-2.9c0-0.5-0.5-0.9-1-0.9c-0.5,0-0.9,0.5-0.9,1c0.1,1,0.2,2,0.3,3.1   C30.9,54.1,31.4,54.4,32,54.4z"/><path d="M32.2,59.5c0.2,0.5,0.7,0.8,1.2,0.6c0.5-0.2,0.8-0.7,0.6-1.2c-0.3-0.9-0.5-1.9-0.7-2.8c-0.1-0.5-0.6-0.8-1.2-0.7   c-0.5,0.1-0.9,0.6-0.7,1.2C31.6,57.6,31.9,58.6,32.2,59.5z"/><path d="M31.9,38.3c-0.3,1-0.5,2-0.7,3c-0.1,0.5,0.2,1,0.8,1.1c0.5,0.1,1-0.2,1.1-0.8c0.2-1,0.4-1.9,0.7-2.8   c0.2-0.5-0.1-1.1-0.7-1.2S32,37.8,31.9,38.3z"/><path d="M34.1,8.2c-0.5,0.1-0.8,0.6-0.7,1.2c0.2,0.9,0.4,1.8,0.6,2.9c0.1,0.5,0.6,0.9,1.1,0.8c0.5-0.1,0.9-0.6,0.8-1.1   c-0.2-1.1-0.4-2.1-0.6-3C35.1,8.4,34.6,8.1,34.1,8.2z"/><path d="M30.7,44.3c-0.1,1-0.2,2-0.2,3.1c0,0.5,0.4,1,0.9,1c0,0,0,0,0,0c0.5,0,1-0.4,1-0.9c0-1,0.1-2,0.2-2.9   c0.1-0.5-0.3-1-0.9-1.1C31.2,43.4,30.7,43.8,30.7,44.3z"/><path d="M34.9,31.9c-0.5-0.1-1.1,0.2-1.2,0.7c-0.3,0.9-0.6,1.9-0.9,2.8c-0.2,0.5,0.1,1.1,0.6,1.2c0.5,0.2,1.1-0.1,1.2-0.6   c0.3-1,0.7-2,0.9-2.9C35.8,32.6,35.5,32.1,34.9,31.9z"/><path d="M36.3,30.1c0.2-1,0.4-2,0.5-3c0.1-0.5-0.3-1-0.8-1.1c-0.5-0.1-1,0.3-1.1,0.8c-0.1,0.9-0.3,1.9-0.5,2.9   c-0.1,0.5,0.2,1,0.8,1.1C35.7,31,36.2,30.7,36.3,30.1z"/><path d="M35.3,14.1c-0.5,0.1-0.9,0.6-0.8,1.1c0.2,1,0.3,2,0.4,2.9c0.1,0.5,0.5,0.9,1.1,0.9c0.5-0.1,0.9-0.5,0.9-1.1   c-0.1-1-0.2-2-0.4-3C36.3,14.4,35.8,14,35.3,14.1z"/><path d="M37,20.9c0-0.5-0.5-0.9-1-0.9c-0.5,0-0.9,0.5-0.9,1c0.1,1,0.1,2,0,2.9c0,0.5,0.4,1,0.9,1c0,0,0,0,0,0c0.5,0,0.9-0.4,1-0.9   C37.1,23.1,37.1,22,37,20.9z"/><path d="M33.7,63.9c0.2,0.5,0.8,0.7,1.3,0.5c0.5-0.2,0.7-0.8,0.5-1.3c-0.2-0.4-0.4-0.9-0.5-1.3c-0.2-0.5-0.8-0.8-1.3-0.6   c-0.5,0.2-0.8,0.8-0.6,1.3C33.4,62.9,33.5,63.4,33.7,63.9z"/></g>
<!-- <text x="0" y="81" fill="#000000" font-size="5px" font-weight="bold" font-family="'Helvetica Neue', Helvetica, Arial-Unicode, Arial, Sans-serif">Created by ProSymbols</text><text x="0" y="86" fill="#000000" font-size="5px" font-weight="bold" font-family="'Helvetica Neue', Helvetica, Arial-Unicode, Arial, Sans-serif">from the Noun Project</text> -->
</svg>